<svg width="14" height="8" viewBox="0 0 14 8" fill="none" xmlns="http://www.w3.org/2000/svg">
<path d="M0.999996 1.17512C1.08371 1.08482 1.18439 1.01191 1.29628 0.960525C1.40818 0.909145 1.5291 0.88031 1.65214 0.875667C1.77518 0.871024 1.89793 0.890664 2.01338 0.933465C2.12883 0.976266 2.23472 1.04139 2.325 1.12512L7 5.53387L11.675 1.12512C11.7653 1.0414 11.8712 0.976285 11.9866 0.93349C12.1021 0.890695 12.2248 0.871058 12.3479 0.875701C12.4709 0.880344 12.5918 0.909176 12.7037 0.96055C12.8156 1.01192 12.9163 1.08483 13 1.17512C13.0837 1.2654 13.1488 1.37129 13.1916 1.48674C13.2344 1.60219 13.2541 1.72494 13.2494 1.84797C13.2448 1.97101 13.2159 2.09193 13.1646 2.20382C13.1132 2.31572 13.0403 2.4164 12.95 2.50012L7.6375 7.50012C7.46414 7.66089 7.23643 7.75023 7 7.75023C6.76356 7.75023 6.53585 7.66089 6.3625 7.50012L1.05 2.50012C0.959702 2.41641 0.886783 2.31573 0.835403 2.20383C0.784023 2.09194 0.755188 1.97102 0.750545 1.84797C0.745902 1.72493 0.765542 1.60218 0.808343 1.48673C0.851144 1.37128 0.916268 1.2654 0.999996 1.17512Z" fill="#292D33"/>
</svg>
