<svg width="16" height="9" viewBox="0 0 16 9" fill="none" xmlns="http://www.w3.org/2000/svg">
<path d="M0.293031 8.70679C0.480558 8.89426 0.734866 8.99957 1.00003 8.99957C1.26519 8.99957 1.5195 8.89426 1.70703 8.70679L8.00003 2.41379L14.293 8.70679C14.4816 8.88894 14.7342 8.98974 14.9964 8.98746C15.2586 8.98518 15.5094 8.88001 15.6948 8.6946C15.8803 8.5092 15.9854 8.25838 15.9877 7.99619C15.99 7.73399 15.8892 7.48139 15.707 7.29279L8.70703 0.292787C8.5195 0.105316 8.26519 0 8.00003 0C7.73487 0 7.48056 0.105316 7.29303 0.292787L0.293031 7.29279C0.10556 7.48031 0.000244141 7.73462 0.000244141 7.99979C0.000244141 8.26495 0.10556 8.51926 0.293031 8.70679Z" fill="#fff"/>
</svg>
